<svg width="42" height="61" viewBox="0 0 42 61" fill="none" xmlns="http://www.w3.org/2000/svg">
<path d="M31.003 17.9741C32.0287 19.5126 32.644 21.4613 32.644 23.5126V30.9998C32.644 32.3331 30.5928 32.3331 30.5928 30.9998V23.5126C30.5928 22.3844 30.3876 21.3588 29.9774 20.4357L31.003 17.9741ZM11.9261 20.6408C11.5158 21.5639 11.3107 22.487 11.3107 23.5126V30.9998C11.3107 32.2306 9.25942 32.2306 9.25942 30.9998V23.5126C9.25942 21.8716 9.66968 20.4357 10.2851 19.1024L11.9261 20.6408ZM4.23378 25.2562H7.00301V31.1024C7.00301 32.9485 8.43891 34.3844 10.2851 34.3844C12.0287 34.3844 13.4645 32.9485 13.4645 31.1024V25.2562H28.3363V31.1024C28.3363 32.9485 29.7722 34.3844 31.5158 34.3844C33.362 34.3844 34.7979 32.9485 34.7979 31.1024V25.2562H37.7722C39.1056 25.2562 40.1312 26.1793 40.2338 27.3075L41.7722 57.9741C41.7722 59.1024 40.644 60.128 39.3107 60.128H2.59275C1.36198 60.128 0.131214 59.1024 0.233779 57.9741L1.8748 27.3075C1.8748 26.1793 2.90044 25.2562 4.23378 25.2562ZM20.2338 0.127991C25.0543 0.127991 29.0543 4.12799 29.0543 8.9485V17.1536C29.0543 18.9998 27.6184 21.8716 25.8748 21.2562C25.1569 21.0511 24.2338 20.0254 23.6184 20.5382C22.0799 21.769 21.0543 21.0511 19.9261 20.5382C18.6953 20.0254 17.0543 21.1536 14.7979 20.5382C12.9517 20.0254 11.4133 18.9998 11.4133 17.1536V8.9485C11.4133 4.12799 15.4133 0.127991 20.2338 0.127991ZM28.644 6.3844C31.8235 10.7947 33.1569 14.3844 28.0286 15.9229L28.644 6.3844Z" fill="black"/>
</svg>
