<svg width="86" height="61" viewBox="0 0 86 61" fill="none" xmlns="http://www.w3.org/2000/svg">
<path d="M52.2631 24.8542C52.0961 24.8542 51.9263 24.8392 51.7566 24.808L39.9009 22.6527L38.0116 27.3765L50.2342 29.8667C51.1397 30.0506 51.9179 30.626 52.3584 31.4381C52.7998 32.2493 52.8602 33.2152 52.5225 34.0754L46.6347 49.0891C46.1508 50.3229 44.9699 51.0756 43.721 51.0756C43.3409 51.0756 42.9551 51.0058 42.5797 50.8596C40.9696 50.2286 40.1782 48.4128 40.8092 46.8036L45.3387 35.2564L33.0906 32.7606C32.1813 32.5757 31.4003 31.9965 30.9608 31.1797C30.5193 30.3628 30.4656 29.3932 30.8089 28.532L37.2862 12.3402C37.9285 10.7348 39.75 9.95754 41.3535 10.5971C42.9579 11.2394 43.738 13.0599 43.0966 14.6643L42.0345 17.3205L52.7639 19.2721C54.293 19.5494 55.306 21.0143 55.0277 22.5433C54.7806 23.9025 53.5968 24.8542 52.2631 24.8542Z" fill="#FF4D00"/>
<path d="M25.178 18.8024L25.0469 20.1087L0.620558 16.1613L0.449829 11.4431C0.449829 11.4431 27.2381 10.5603 25.178 18.8024Z" fill="#FF4D00"/>
<path d="M23.9997 30.5779H6.04215C6.04215 30.5779 2.21634 29.9893 1.03823 27.634L0.653381 17.0621L24.959 20.9897L23.9997 30.5779Z" fill="#FF4D00"/>
<path d="M5.28207 45.2321L9.62288 46.2207C9.69645 45.584 9.81436 44.9482 9.98886 44.32C9.27859 44.3728 8.63342 44.5011 8.06936 44.7134L7.17799 44.1993C7.50435 42.6731 8.06464 41.1715 8.88715 39.7472C13.1129 32.4247 22.4756 29.9166 29.7961 34.1443C36.1178 37.7937 38.8419 45.2699 36.7488 51.9566H53.9121L56.8786 34.4555C56.9683 33.7528 57.8313 28.0877 62.257 25.3372C61.8665 24.5052 60.7318 23.3299 57.4276 23.6167C56.4014 23.6987 55.4845 22.9413 55.394 21.9085C55.3044 20.8756 56.0684 19.9654 57.1022 19.8758C60.0555 19.6183 62.3872 20.2106 64.0407 21.6359C64.9359 22.4065 65.4499 23.2752 65.7584 24.0223C65.7659 24.0204 65.7725 24.0185 65.7791 24.0176C65.8838 23.9996 65.9895 23.9911 66.0961 23.9911H72.5724C73.609 23.9911 74.4495 24.8316 74.4495 25.8692C74.4495 26.9058 73.609 27.7462 72.5724 27.7462H66.2649C61.4119 28.6914 60.6318 34.6904 60.6016 34.9413C60.5979 34.9762 60.5932 35.0092 60.5875 35.0432L57.3484 54.1487C57.1956 55.0513 56.4127 55.7126 55.4977 55.7126H34.983C34.2398 56.8605 33.371 57.883 32.3976 58.7611L31.1884 58.0641C31.0506 57.6198 30.8488 57.1557 30.5988 56.6813C26.6928 60.3996 20.656 61.2909 15.7578 58.4612C12.5328 56.5983 10.4671 53.5025 9.78795 50.1106L4.44917 48.8938C3.438 48.6637 2.80414 47.6572 3.03429 46.6461C3.26445 45.6349 4.27656 45.001 5.28207 45.2321ZM20.7985 47.645C18.2234 46.1584 15.8634 45.201 13.7986 44.703C13.5204 45.4736 13.3619 46.2659 13.3082 47.0602L23.5216 49.3853C22.6652 48.7844 21.7597 48.1996 20.7985 47.645ZM17.6348 55.2079C20.9522 57.1237 25.011 56.5954 27.7446 54.1987L13.9845 51.0661C14.6966 52.7498 15.9332 54.2251 17.6348 55.2079Z" fill="#FF4D00"/>
<path d="M72.8666 35.1771C79.7458 35.1771 85.342 40.7725 85.342 47.6516C85.342 54.5307 79.7458 60.127 72.8666 60.127C65.9885 60.127 60.3913 54.5307 60.3913 47.6516C60.3913 40.7725 65.9885 35.1771 72.8666 35.1771ZM72.8666 56.3719C77.6753 56.3719 81.587 52.4603 81.587 47.6516C81.587 42.8429 77.6753 38.9313 72.8666 38.9313C68.0589 38.9313 64.1463 42.8429 64.1463 47.6516C64.1463 52.4603 68.0589 56.3719 72.8666 56.3719Z" fill="#FF4D00"/>
<path d="M52.8697 5.38843C53.4197 8.19648 52.035 10.8395 49.7844 11.28C49.475 11.3403 49.1656 11.3526 48.86 11.3271C48.8713 11.3394 48.8798 11.3479 48.8798 11.3479C40.9094 10.1537 42.8364 9.94809 42.2365 6.87876C41.6357 3.81038 43.6363 0.835375 46.7056 0.234526C49.7749 -0.366323 52.7499 1.63525 53.3499 4.70363L52.733 4.82437C52.7848 5.0083 52.833 5.19507 52.8697 5.38843ZM51.6501 5.62707C51.6124 5.43276 51.5615 5.24694 51.5049 5.0649L47.7922 5.7912C45.9699 6.36281 46.4651 7.96916 47.2876 9.30857C47.946 9.91602 48.7506 10.216 49.5457 10.0603C51.1238 9.75095 52.068 7.76259 51.6501 5.62707Z" fill="#FF4D00"/>
</svg>
