<svg width="11" height="19" viewBox="0 0 11 19" fill="none" xmlns="http://www.w3.org/2000/svg">
<path d="M10.1465 9.61701C10.1112 9.98249 9.96366 10.3281 9.72411 10.6064L3.32091 18.0768C3.17179 18.2628 2.9868 18.417 2.77691 18.5301C2.56703 18.6433 2.33653 18.713 2.09914 18.7353C1.86175 18.7576 1.62231 18.7319 1.39504 18.6598C1.16776 18.5877 0.957312 18.4707 0.776173 18.3156C0.595035 18.1606 0.4469 17.9707 0.340604 17.7573C0.234306 17.5439 0.172006 17.3112 0.157395 17.0733C0.142786 16.8353 0.176164 16.5968 0.255557 16.3719C0.334949 16.1471 0.458749 15.9405 0.619562 15.7645L6.03338 9.45024L0.619562 3.13597C0.458749 2.95994 0.334949 2.75336 0.255557 2.52853C0.176164 2.30371 0.142786 2.06521 0.157395 1.82723C0.172006 1.58924 0.234306 1.35662 0.340604 1.14319C0.4469 0.929762 0.595035 0.739883 0.776173 0.584835C0.957312 0.429789 1.16776 0.312737 1.39504 0.240643C1.62231 0.168549 1.86175 0.142879 2.09914 0.165163C2.33653 0.187447 2.56703 0.257229 2.77691 0.370359C2.9868 0.48349 3.17179 0.637659 3.32091 0.823708L9.72411 8.29411C9.87964 8.47502 9.99718 8.68536 10.0697 8.91263C10.1423 9.1399 10.1684 9.37944 10.1465 9.61701Z" fill="#4E4E4E"/>
</svg>
