<svg width="11" height="19" viewBox="0 0 11 19" fill="none" xmlns="http://www.w3.org/2000/svg">
<path d="M10.3184 9.61701C10.2831 9.98249 10.1355 10.3281 9.89599 10.6064L3.49279 18.0768C3.34367 18.2628 3.15867 18.417 2.94879 18.5301C2.7389 18.6433 2.50841 18.713 2.27102 18.7353C2.03363 18.7576 1.79418 18.7319 1.56691 18.6598C1.33964 18.5877 1.12919 18.4707 0.948048 18.3156C0.76691 18.1606 0.618775 17.9707 0.512479 17.7573C0.406181 17.5439 0.343881 17.3112 0.32927 17.0733C0.314661 16.8353 0.348039 16.5968 0.427432 16.3719C0.506824 16.1471 0.630624 15.9405 0.791437 15.7645L6.20525 9.45024L0.791437 3.13597C0.630624 2.95994 0.506824 2.75336 0.427432 2.52853C0.348039 2.30371 0.314661 2.06521 0.32927 1.82723C0.343881 1.58924 0.406181 1.35662 0.512479 1.14319C0.618775 0.929762 0.76691 0.739883 0.948048 0.584835C1.12919 0.429789 1.33964 0.312737 1.56691 0.240643C1.79418 0.168549 2.03363 0.142879 2.27102 0.165163C2.50841 0.187447 2.7389 0.257229 2.94879 0.370359C3.15867 0.48349 3.34367 0.637659 3.49279 0.823708L9.89599 8.29411C10.0515 8.47502 10.1691 8.68536 10.2416 8.91263C10.3142 9.1399 10.3403 9.37944 10.3184 9.61701Z" fill="#4E4E4E"/>
</svg>
