<?xml version="1.0" encoding="iso-8859-1"?>
<!-- Generator: Adobe Illustrator 18.1.1, SVG Export Plug-In . SVG Version: 6.00 Build 0)  -->
<svg version="1.1" id="Capa_1" xmlns="http://www.w3.org/2000/svg" xmlns:xlink="http://www.w3.org/1999/xlink" x="0px" y="0px"
	 viewBox="0 0 31.601 31.601" style="enable-background:new 0 0 31.601 31.601;" xml:space="preserve">
<g>
	<path d="M20.038,21.822c-2.46-2.283-5.832-2.553-8.529,0.048c-0.139,0.133-0.215,0.212,0.041,0.466l4.23,4.146l4.188-4.018
		C20.399,22.032,20.181,21.965,20.038,21.822z"/>
	<path d="M26.205,16.739c-5.79-5.705-15.142-5.68-20.896,0.076c-0.136,0.135-0.136,0.356,0.001,0.491l3.002,3.004
		c0.135,0.135,0.354,0.135,0.49,0c3.854-3.855,10.129-3.857,13.985,0c0.133,0.135,0.355,0.135,0.49,0l3.004-3.004l0.01-0.012
		c0.137-0.137,0.137-0.359,0.002-0.492L26.205,16.739z"/>
	<path d="M31.501,11.595l-0.09-0.062c-8.662-8.579-22.684-8.55-31.31,0.075c-0.135,0.135-0.135,0.355,0.003,0.494l3.088,3.088
		c0.137,0.137,0.356,0.135,0.491,0c6.679-6.68,17.546-6.677,24.224,0.001c0.133,0.134,0.355,0.135,0.49,0.001l3.088-3.09
		l0.013-0.013C31.633,11.953,31.636,11.729,31.501,11.595z"/>
	<g>
	</g>
	<g>
	</g>
	<g>
	</g>
	<g>
	</g>
	<g>
	</g>
	<g>
	</g>
	<g>
	</g>
	<g>
	</g>
	<g>
	</g>
	<g>
	</g>
	<g>
	</g>
	<g>
	</g>
	<g>
	</g>
	<g>
	</g>
	<g>
	</g>
</g>
<g>
</g>
<g>
</g>
<g>
</g>
<g>
</g>
<g>
</g>
<g>
</g>
<g>
</g>
<g>
</g>
<g>
</g>
<g>
</g>
<g>
</g>
<g>
</g>
<g>
</g>
<g>
</g>
<g>
</g>
</svg>
