<?xml version="1.0"?>
<svg xmlns="http://www.w3.org/2000/svg" xmlns:xlink="http://www.w3.org/1999/xlink" version="1.1" id="Capa_1" x="0px" y="0px" viewBox="0 0 369.946 369.946" style="enable-background:new 0 0 369.946 369.946;" xml:space="preserve" width="512px" height="512px" class=""><g transform="matrix(0.95061 0 0 0.95061 9.13586 9.13586)"><g>
	<path d="M250.609,0h-11.934H131.271h-11.934H0v119.337v11.934v107.404v11.934v119.337h119.337h11.934   h107.404h11.934h119.337V250.609v-11.934V131.271v-11.934V0H250.609z M238.675,11.934v107.404H131.271V11.934H238.675z    M238.675,131.271v107.404H131.271V131.271H238.675z M11.934,11.934h107.404v107.404H11.934V11.934z M11.934,131.271h107.404   v107.404H11.934V131.271z M11.934,358.012V250.609h107.404v107.404H11.934z M131.271,358.012V250.609h107.404v107.404H131.271z    M358.012,358.012H250.609V250.609h107.404V358.012z M358.012,238.675H250.609V131.271h107.404V238.675z M250.609,119.337V11.934   h107.404v107.404H250.609z" data-original="#010002" class="active-path" data-old_color="#010002" fill="#3500FF"/>
</g></g> </svg>
