<?xml version="1.0" encoding="iso-8859-1"?>
<!-- Generator: Adobe Illustrator 19.0.0, SVG Export Plug-In . SVG Version: 6.00 Build 0)  -->
<svg version="1.1" id="Capa_1" xmlns="http://www.w3.org/2000/svg" xmlns:xlink="http://www.w3.org/1999/xlink" x="0px" y="0px"
	 viewBox="0 0 480.002 480.002" style="enable-background:new 0 0 480.002 480.002;" xml:space="preserve">
<path style="fill:#55D5F2;" d="M264,36.001h-56v88h26.216c2.768-4.76,7.872-8,13.784-8s11.008,3.24,13.784,8H288v-48L264,36.001z"/>
<path style="fill:#F5FAFC;" d="M264,36.001h-24v32h43.2L264,36.001z"/>
<circle style="fill:#3F4E56;" cx="248" cy="132.001" r="16"/>
<path style="fill:#D3D3D3;" d="M64,12.001v112h34.216c2.768-4.76,7.872-8,13.784-8c5.912,0,11.008,3.24,13.784,8H208v-112H64z"/>
<circle style="fill:#3F4E56;" cx="112" cy="132.001" r="16"/>
<path style="fill:#ED4720;" d="M424,322.401v-62.4h-32v34.664l-40-34.664l-120,104h48v104h144v-104h48L424,322.401z"/>
<path style="fill:#F5FAFC;" d="M328,420.001v48h48v-48c0-13.256-10.744-24-24-24S328,406.745,328,420.001z"/>
<path d="M64,132.001h24c0,13.232,10.768,24,24,24s24-10.768,24-24h72h16c0,13.232,10.768,24,24,24s24-10.768,24-24h16
	c4.424,0,8-3.584,8-8v-48c0-1.448-0.392-2.872-1.144-4.12l-4.792-7.984c0-0.008-0.008-0.016-0.008-0.016l-19.2-32
	c-1.44-2.408-4.04-3.88-6.856-3.88h-24h-24v-16c0-4.416-3.576-8-8-8H64c-4.424,0-8,3.584-8,8v112
	C56,128.417,59.576,132.001,64,132.001z M248,60.001v-16h11.472l9.6,16H248z M240,76.001h38.672L280,78.217v37.784h-14.2
	c-0.048-0.056-0.104-0.088-0.152-0.136c-1.008-1.104-2.12-2.104-3.32-3c-0.112-0.088-0.216-0.192-0.336-0.272
	c-1.272-0.92-2.632-1.72-4.08-2.384c-0.064-0.024-0.112-0.064-0.176-0.096c-1.432-0.64-2.936-1.144-4.496-1.496
	c-0.08-0.016-0.152-0.056-0.24-0.072c-1.616-0.344-3.28-0.544-5-0.544s-3.384,0.2-5,0.544c-0.08,0.016-0.152,0.056-0.232,0.072
	c-1.568,0.352-3.072,0.856-4.504,1.496c-0.064,0.032-0.12,0.072-0.176,0.096c-1.448,0.664-2.8,1.456-4.08,2.376
	c-0.112,0.08-0.216,0.184-0.328,0.272c-1.2,0.904-2.312,1.896-3.32,3.008c-0.048,0.048-0.104,0.088-0.152,0.136H216v-72h16v24
	C232,72.417,235.576,76.001,240,76.001z M240,132.001c0-4.408,3.584-8,8-8s8,3.592,8,8c0,4.408-3.584,8-8,8S240,136.409,240,132.001
	z M72,20.001h128v16v80h-70.2c-0.048-0.056-0.104-0.088-0.152-0.136c-1.008-1.104-2.12-2.104-3.32-3
	c-0.112-0.088-0.216-0.192-0.336-0.272c-1.272-0.92-2.632-1.72-4.08-2.384c-0.064-0.024-0.112-0.064-0.176-0.096
	c-1.432-0.64-2.936-1.144-4.496-1.496c-0.08-0.016-0.152-0.056-0.24-0.072c-1.616-0.344-3.28-0.544-5-0.544s-3.384,0.2-5,0.544
	c-0.08,0.016-0.152,0.056-0.232,0.072c-1.568,0.352-3.072,0.856-4.504,1.496c-0.064,0.032-0.12,0.072-0.176,0.096
	c-1.448,0.664-2.8,1.456-4.08,2.376c-0.112,0.08-0.216,0.184-0.328,0.272c-1.2,0.904-2.312,1.896-3.32,3.008
	c-0.048,0.048-0.104,0.088-0.152,0.136H72L72,20.001z M104,132.001c0-4.408,3.584-8,8-8s8,3.592,8,8c0,4.408-3.584,8-8,8
	S104,136.409,104,132.001z"/>
<path d="M280,476.001h48h48h48c4.424,0,8-3.584,8-8v-96h40c3.336,0,6.328-2.072,7.496-5.2s0.272-6.656-2.248-8.84L432,318.745
	v-58.744c0-4.416-3.576-8-8-8h-32c-4.424,0-8,3.584-8,8v17.152l-26.76-23.192c-3.016-2.6-7.472-2.6-10.488,0l-120,104
	c-2.52,2.184-3.424,5.712-2.248,8.84c1.168,3.128,4.16,5.2,7.496,5.2h40v96C272,472.417,275.576,476.001,280,476.001L280,476.001z
	 M352,270.585l34.76,30.128c2.376,2.048,5.712,2.528,8.56,1.232s4.68-4.144,4.68-7.28v-26.664h16v54.4
	c0,2.32,1.008,4.528,2.76,6.048l31.792,27.552H424c-4.424,0-8,3.584-8,8v96h-32v-40c0-17.648-14.352-32-32-32s-32,14.352-32,32v40
	h-32v-96c0-4.416-3.576-8-8-8h-26.552L352,270.585z M336,420.001c0-8.824,7.176-16,16-16s16,7.176,16,16v40h-32V420.001z"/>
<path d="M0,28.001h40v16H0V28.001z"/>
<path d="M0,60.001h40v16H0V60.001z"/>
<path d="M0,92.001h40v16H0V92.001z"/>
<path d="M416,84.001H312v16h104c26.472,0,48,21.528,48,48s-21.528,48-48,48H120c-66.168,0-120,53.832-120,120s53.832,120,120,120
	h136v-16H120c-57.344,0-104-46.656-104-104s46.656-104,104-104h296c35.288,0,64-28.712,64-64S451.288,84.001,416,84.001z"/>
<g>
</g>
<g>
</g>
<g>
</g>
<g>
</g>
<g>
</g>
<g>
</g>
<g>
</g>
<g>
</g>
<g>
</g>
<g>
</g>
<g>
</g>
<g>
</g>
<g>
</g>
<g>
</g>
<g>
</g>
</svg>
