<svg height="511pt" viewBox="0 -22 511.99992 511" width="511pt" xmlns="http://www.w3.org/2000/svg"><path d="m503.621094 326.800781-1.527344 5.992188-3.082031 12.160156-10.78125 42.417969c-2 7.882812-9.097657 13.40625-17.230469 13.40625h-215.0625l33.957031-189.882813h71.695313c38.125 0 69.019531 30.90625 69.039062 69.007813 0 7.339844 5.972656 13.351562 13.3125 13.351562h34.199219c.46875 0 .933594.011719 1.394531.03125 16.714844.855469 28.203125 17.289063 24.085938 33.515625zm0 0" fill="#ffa90b"/><path d="m404.734375 271.328125v1.082031c0 4.4375-3.632813 8.074219-8.074219 8.074219h-59.910156c-4.4375 0-8.070312-3.636719-8.070312-8.074219l4.046874-24.988281c0-4.4375 3.632813-8.074219 8.070313-8.074219h31.960937c16.945313 0 30.933594 13.375 31.917969 30.09375.039063.621094.058594 1.253906.058594 1.886719zm0 0" fill="#ffd993"/><path d="m264.339844 353.796875-8.402344 46.96875v.011719h215.0625c.128906 0 .25 0 .382812-.011719 7.972657-.160156 14.878907-5.632813 16.847657-13.394531l8.53125-33.574219zm0 0" fill="#f29500"/><path d="m404.675781 269.441406h-49.8125c-4.4375 0-8.070312-3.636718-8.070312-8.074218l3.5625-22.019532h22.402343c16.945313 0 30.933594 13.375 31.917969 30.09375zm0 0" fill="#ffe7c0"/><path d="m13.964844 353.792969h275.929687l-8.367187 46.980469h-260.882813c-2.765625 0-5.335937-.84375-7.46875-2.28125-4.40625-2.980469-6.40625-8.460938-5.371093-13.679688z" fill="#498d2d"/><path d="m503.621094 326.800781-1.527344 5.992188c-18.792969-6.898438-34.046875-21.304688-42.066406-39.539063h18.113281c.46875 0 .933594.011719 1.394531.03125 16.714844.855469 28.203125 17.289063 24.085938 33.515625zm0 0" fill="#ffe1aa"/><path d="m289.890625 353.792969h-275.925781l39.160156-173.707031c0-4.429688 3.589844-8.019532 8.019531-8.019532h250.847657c4.429687 0 8.019531 3.589844 8.019531 8.019532zm0 0" fill="#5db33a"/><path d="m188.117188 142.851562c0 42.953126-30.171876 78.855469-70.484376 87.652344-6.207031 1.367188-12.640624 2.078125-19.246093 2.078125-49.550781 0-89.722657-40.171875-89.722657-89.730469 0-49.546874 40.171876-89.71875 89.722657-89.71875 6.605469 0 13.039062.710938 19.246093 2.078126 40.3125 8.792968 70.484376 44.699218 70.484376 87.640624zm0 0" fill="#44bfd7"/><path d="m188.117188 142.851562c0 42.953126-30.171876 78.855469-70.484376 87.652344-40.3125-8.796875-70.484374-44.699218-70.484374-87.652344 0-42.941406 30.171874-78.847656 70.484374-87.640624 40.3125 8.792968 70.484376 44.699218 70.484376 87.640624zm0 0" fill="#7cd2e3"/><path d="m113.371094 142.855469c0 8.277343-6.710938 14.988281-14.984375 14.988281-8.277344 0-14.988281-6.710938-14.988281-14.988281 0-8.273438 6.710937-14.984375 14.988281-14.984375 8.273437 0 14.984375 6.710937 14.984375 14.984375zm0 0" fill="#c42d2d"/><path d="m416.480469 400.773438c0 25.941406-21.035157 46.976562-46.980469 46.976562-25.941406 0-46.976562-21.035156-46.976562-46.976562 0-25.945313 21.035156-46.980469 46.976562-46.980469 25.945312 0 46.980469 21.035156 46.980469 46.980469zm0 0" fill="#7e8b96"/><path d="m392.214844 400.773438c0 12.542968-10.171875 22.710937-22.714844 22.710937s-22.710938-10.167969-22.710938-22.710937c0-12.542969 10.167969-22.710938 22.710938-22.710938s22.714844 10.167969 22.714844 22.710938zm0 0" fill="#4e5a61"/><path d="m158.042969 400.773438c0 25.941406-21.03125 46.976562-46.976563 46.976562-25.945312 0-46.976562-21.035156-46.976562-46.976562 0-25.945313 21.03125-46.980469 46.976562-46.980469 25.945313 0 46.976563 21.035156 46.976563 46.980469zm0 0" fill="#7e8b96"/><path d="m133.777344 400.773438c0 12.542968-10.167969 22.710937-22.710938 22.710937-12.542968 0-22.710937-10.167969-22.710937-22.710937 0-12.542969 10.167969-22.710938 22.710937-22.710938 12.542969 0 22.710938 10.167969 22.710938 22.710938zm0 0" fill="#4e5a61"/><path d="m478.140625 285.726562c-19.089844 0-14.761719 0-34.199219 0-3.191406 0-5.78125-2.613281-5.78125-5.824218-.023437-42.210938-34.371094-76.539063-76.570312-76.539063h-37.972656c4.023437-23.164062 3.925781-22.269531 3.925781-23.273437 0-8.582032-6.976563-15.550782-15.550781-15.550782h-118.785157c3.308594-14.464843 3.324219-30.054687-.402343-45.082031-.996094-4.035156-5.070313-6.496093-9.117188-5.5-4.035156.992188-6.496094 5.078125-5.503906 9.117188 17.882812 72.542969-62.671875 128.988281-124.488282 88.722656-68.890624-44.652344-36.292968-151.132813 44.691407-151.132813 27.832031 0 53.5625 13.925782 68.835937 37.246094 2.269532 3.484375 6.9375 4.460938 10.421875 2.179688 3.472657-2.277344 4.457031-6.945313 2.175781-10.421875-16.675781-25.472657-43.90625-41.460938-73.902343-43.765625v-30.34375h16.566406c4.15625 0 7.527344-3.371094 7.527344-7.527344 0-4.160156-3.371094-7.53125-7.527344-7.53125h-48.195313c-4.15625 0-7.53125 3.371094-7.53125 7.53125 0 4.15625 3.375 7.527344 7.53125 7.527344h16.566407v30.332031c-50.121094 3.855469-89.71875 45.871094-89.71875 96.960937 0 30.300782 13.925781 57.402344 35.703125 75.253907-37.09375 164.503906-27.8125 121.898437-36.417969 165.242187-1.667969 8.363282 1.6875 16.757813 8.535156 21.386719 6.859375 4.613281 9.050781 3.5625 48.121094 3.5625 5.15625 37.191406 45.878906 58.25 79.28125 40.773437 3.683594-1.9375 5.097656-6.484374 3.171875-10.171874-1.9375-3.683594-6.488281-5.097657-10.171875-3.171876-28.996094 15.242188-63.3125-9.945312-57.019531-42.488281 3.523437-18.164062 19.550781-31.910156 38.726562-31.910156 28.917969 0 48.183594 30.347656 35.574219 56.515625-1.800781 3.746094-.222656 8.246094 3.523437 10.050781 3.742188 1.796875 8.242188.222657 10.050782-3.523437 2.457031-5.121094 4.085937-10.5 4.847656-16.074219 126.78125 0 39.984375.011719 150.453125.011719 3.675781 26.503906 26.488281 46.96875 53.988281 46.96875 27.488282 0 50.3125-20.464844 53.984375-46.96875h47.511719c11.585938 0 21.675781-7.851563 24.527344-19.078125.003906-.015625 15.394531-60.566407 15.394531-60.582031 5.476563-21.589844-10.570313-42.921876-32.78125-42.921876zm-421.0625 107.511719h-36.433594c-3.863281 0-6.164062-3.382812-5.453125-6.960937l4.960938-24.949219h53.332031c-8.703125 8.292969-14.679687 19.4375-16.40625 31.910156zm218.136719 0c-17.109375 0-96.453125 0-110.164063 0-1.726562-12.472656-7.699219-23.617187-16.402343-31.910156h132.257812zm-251.832032-46.96875 26.820313-118.957031c50.761719 29.074219 115.914063 6.796875 138.222656-47.714844.4375 0 123.761719-.132812 123.988281.242188-6.4375 37.144531-4.609374 26.605468-28.855468 166.429687-13.976563 0-249.46875 0-260.175782 0zm384.84375 62.039063c-3.523437 18.160156-19.558593 31.90625-38.722656 31.90625-21.824218 0-39.449218-17.773438-39.449218-39.449219 0-21.6875 17.652343-39.4375 39.449218-39.4375 24.722656 0 43.4375 22.605469 38.722656 46.980469zm72.703126-22.78125c-1.15625 4.546875-5.242188 7.71875-9.929688 7.71875h-47.511719c-3.664062-26.507813-26.484375-46.976563-53.984375-46.976563-27.511718 0-50.324218 20.46875-53.988281 46.976563h-25c9.285156-52.148438 1.578125-8.066406 30.492187-174.820313h40.582032c33.898437 0 61.488281 27.582031 61.507812 61.476563 0 11.515625 9.347656 20.882812 20.84375 20.882812h11.359375c8.242188 15.960938 21.671875 28.84375 37.902344 36.429688-.007813.027344-12.265625 48.285156-12.273437 48.3125zm15.886718-63.320313c-9.621094-5.058593-17.890625-12.449219-24.011718-21.421875 5.074218 0 13.820312-1.125 20.253906 7.589844 2.976562 4.035156 4.28125 8.957031 3.757812 13.832031zm0 0"/><path d="m369.503906 370.527344c-16.65625 0-30.242187 13.542968-30.242187 30.238281 0 16.644531 13.527343 30.242187 30.242187 30.242187 14.074219 0 25.933594-9.660156 29.285156-22.699218 4.914063-19.019532-9.488281-37.78125-29.285156-37.78125zm13.171875 37.78125c-5.847656 10.171875-20.492187 10.179687-26.347656 0-5.796875-10.09375 1.554687-22.722656 13.175781-22.722656 11.652344 0 18.953125 12.65625 13.171875 22.722656zm0 0"/><path d="m392.589844 245.199219c-3.207032 2.652343-3.652344 7.398437-1.003906 10.605469 3.621093 4.371093 5.613281 9.886718 5.613281 15.527343 0 .703125.152343 1.621094-.542969 1.621094h-59.90625c-.199219 0-.386719-.132813-.480469-.308594 4.117188-25.417969 3.988281-24.226562 3.988281-25.21875 0-.886719-.765624-.542969 30.535157-.542969 4.15625 0 7.53125-3.371093 7.53125-7.53125 0-4.15625-3.375-7.527343-7.53125-7.527343h-29.992188c-8.367187 0-15.21875 6.621093-15.585937 14.898437l-3.96875 24.484375c-1.191406 7.308594 5.339844 16.804688 15.503906 16.804688h59.90625c7.960938 0 15.605469-5.992188 15.605469-16.679688 0-9.136719-3.222657-18.0625-9.070313-25.128906-2.652344-3.207031-7.398437-3.652344-10.601562-1.003906zm0 0"/><path d="m356.828125 308.5625h-20.078125c-4.15625 0-7.53125 3.371094-7.53125 7.53125 0 4.15625 3.375 7.53125 7.53125 7.53125h20.078125c4.160156 0 7.53125-3.375 7.53125-7.53125 0-4.160156-3.371094-7.53125-7.53125-7.53125zm0 0"/><path d="m111.066406 370.527344c-14.078125 0-25.933594 9.667968-29.289062 22.710937-4.886719 18.925781 9.421875 37.769531 29.289062 37.769531 14.078125 0 25.933594-9.667968 29.289063-22.710937 4.929687-19.09375-9.589844-37.769531-29.289063-37.769531zm0 45.421875c-11.632812 0-18.992187-12.667969-13.171875-22.710938 7.746094-13.511719 28.351563-7.921875 28.351563 7.527344 0 8.410156-6.835938 15.183594-15.179688 15.183594zm0 0"/><path d="m50.613281 433.449219c0-4.160157-3.371093-7.53125-7.53125-7.53125h-29.117187c-4.15625 0-7.527344 3.371093-7.527344 7.53125 0 4.15625 3.371094 7.527343 7.527344 7.527343h29.117187c4.160157 0 7.53125-3.367187 7.53125-7.527343zm0 0"/><path d="m88.625 259.917969c0-4.160157-3.371094-7.53125-7.53125-7.53125h-19.734375c-4.160156 0-7.53125 3.371093-7.53125 7.53125 0 4.160156 3.371094 7.53125 7.53125 7.53125h19.734375c4.160156 0 7.53125-3.371094 7.53125-7.53125zm0 0"/><path d="m186.585938 313.96875h-19.734376c-4.160156 0-7.53125 3.371094-7.53125 7.53125 0 4.15625 3.371094 7.527344 7.53125 7.527344h19.734376c4.15625 0 7.53125-3.371094 7.53125-7.527344 0-4.160156-3.375-7.53125-7.53125-7.53125zm0 0"/><path d="m100.183594 285.214844h73.390625c4.160156 0 7.53125-3.375 7.53125-7.53125 0-4.160156-3.371094-7.53125-7.53125-7.53125h-73.390625c-4.160156 0-7.53125 3.371094-7.53125 7.53125 0 4.15625 3.371094 7.53125 7.53125 7.53125zm0 0"/><path d="m119.257812 299.324219h-48.03125c-4.160156 0-7.53125 3.375-7.53125 7.53125 0 4.160156 3.371094 7.53125 7.53125 7.53125h48.03125c4.160157 0 7.53125-3.371094 7.53125-7.53125 0-4.15625-3.371093-7.53125-7.53125-7.53125zm0 0"/><path d="m64.089844 452.023438h-29.117188c-4.160156 0-7.53125 3.371093-7.53125 7.527343 0 4.160157 3.371094 7.53125 7.53125 7.53125h29.117188c4.15625 0 7.527344-3.371093 7.527344-7.53125 0-4.15625-3.371094-7.527343-7.527344-7.527343zm0 0"/><path d="m136.179688 93c-3.3125-2.511719-8.035157-1.859375-10.550782 1.453125l-20.425781 26.945313c-14.53125-4.628907-29.332031 6.296874-29.332031 21.457031 0 12.417969 10.097656 22.515625 22.515625 22.515625 17.867187 0 28.636719-19.949219 18.8125-34.867188l20.433593-26.953125c2.511719-3.3125 1.859376-8.039062-1.453124-10.550781zm-37.792969 57.3125c-4.113281 0-7.457031-3.34375-7.457031-7.457031 0-4.109375 3.34375-7.457031 7.457031-7.457031 4.109375 0 7.453125 3.347656 7.453125 7.457031 0 4.113281-3.34375 7.457031-7.453125 7.457031zm0 0"/></svg>