<?xml version="1.0"?>
<svg xmlns="http://www.w3.org/2000/svg" height="512px" viewBox="0 0 512.00258 512" width="512px" class=""><g><path d="m121.003906 269.992188h30v30h-30zm0 0" data-original="#000000" class="active-path" data-old_color="#4A4ABB" fill="#3333C9"/><path d="m240.996094 269.992188h30v30h-30zm0 0" data-original="#000000" class="active-path" data-old_color="#4A4ABB" fill="#3333C9"/><path d="m360.988281 269.992188h30v30h-30zm0 0" data-original="#000000" class="active-path" data-old_color="#4A4ABB" fill="#3333C9"/><path d="m300.992188 299.992188h30v30h-30zm0 0" data-original="#000000" class="active-path" data-old_color="#4A4ABB" fill="#3333C9"/><path d="m181 299.992188h30v30h-30zm0 0" data-original="#000000" class="active-path" data-old_color="#4A4ABB" fill="#3333C9"/><path d="m211 419.984375h89.992188v30h-89.992188zm0 0" data-original="#000000" class="active-path" data-old_color="#4A4ABB" fill="#3333C9"/><path d="m121.003906 419.984375h59.996094v30h-59.996094zm0 0" data-original="#000000" class="active-path" data-old_color="#4A4ABB" fill="#3333C9"/><path d="m330.992188 419.984375h59.996093v30h-59.996093zm0 0" data-original="#000000" class="active-path" data-old_color="#4A4ABB" fill="#3333C9"/><path d="m402.4375 219.1875 35.230469-20.027344c13.933593 11.980469 34.644531 14.730469 51.820312 4.816406 21.535157-12.4375 28.90625-39.929687 16.46875-61.46875-12.40625-21.488281-39.980469-28.875-61.464843-16.46875-17.117188 9.878907-25.101563 29.132813-21.777344 47.113282l-46.648438 26.523437c-10.140625-6.414062-20.75-11.976562-31.726562-16.660156l53.5-93.757813c18.460937 3.378907 37.472656-5.03125 47.121094-21.746093 12.433593-21.535157 5.070312-49.03125-16.46875-61.464844-21.535157-12.4375-49.03125-5.070313-61.46875 16.46875-9.9375 17.214844-7.121094 37.925781 4.800781 51.804687l-56.296875 98.660157c-14.460938-3.953125-29.367188-6.472657-44.53125-7.476563v-78.078125c17.457031-6.191406 30-22.867187 30-42.417969 0-24.8125-20.1875-44.9999995-45-44.9999995-24.808594 0-44.996094 20.1874995-44.996094 44.9999995 0 19.550782 12.539062 36.226563 30 42.417969v78.078125c-15.164062 1-30.070312 3.519532-44.527344 7.476563l-56.292968-98.660157c11.917968-13.875 14.746093-34.585937 4.800781-51.808593-12.40625-21.484375-39.980469-28.875-61.46875-16.46875-21.535157 12.433593-28.90625 39.925781-16.46875 61.46875 9.894531 17.136719 29.117187 25.09375 47.125 21.757812l53.488281 93.742188c-10.976562 4.683593-21.585938 10.246093-31.726562 16.660156l-46.640626-26.519531c3.3125-17.9375-4.609374-37.203125-21.777343-47.117188-21.535157-12.433594-49.03125-5.070312-61.46875 16.46875-12.433594 21.539063-5.070313 49.03125 16.472656 61.46875 16.882813 9.746094 37.636719 7.316406 51.804687-4.824218l35.238282 20.035156c-42.789063 36.738281-69.367188 86.875-76.550782 140.804687h-32.9960932v151.992188h511.9687502v-151.992188h-32.996094c-7.203125-54.046875-33.851563-104.144531-76.546875-140.800781zm64.527344-69.179688c5.1875 0 10.238281 2.691407 13.015625 7.5 4.140625 7.175782 1.6875 16.34375-5.492188 20.488282-7.179687 4.140625-16.34375 1.6875-20.488281-5.492188-5.722656-9.910156 1.375-22.496094 12.964844-22.496094zm-73.960938-112.496093c4.136719-7.160157 13.289063-9.644531 20.488282-5.488281 7.179687 4.144531 9.636718 13.308593 5.488281 20.488281-4.132813 7.160156-13.324219 9.625-20.488281 5.488281-7.179688-4.144531-9.636719-13.308594-5.488282-20.488281zm-299.984375 15c-4.144531-7.179688-1.6875-16.34375 5.492188-20.488281 7.207031-4.164063 16.378906-1.625 20.488281 5.488281 4.144531 7.179687 1.691406 16.34375-5.488281 20.488281-7.179688 4.148438-16.34375 1.691406-20.492188-5.488281zm-35.015625 119.992187c-4.136718 7.164063-13.324218 9.625-20.488281 5.492188-7.179687-4.144532-9.636719-13.3125-5.492187-20.488282 4.136718-7.164062 13.292968-9.648437 20.488281-5.492187 7.179687 4.144531 9.636719 13.308594 5.492187 20.488281zm197.992188-142.496094c8.269531 0 15 6.730469 15 15 0 8.269532-6.730469 15-15 15-8.269532 0-15-6.730468-15-15 0-8.269531 6.730468-15 15-15zm-73.285156 179.382813 30.261718 53.039063 26.054688-14.867188-27.09375-47.484375c14.191406-3.316406 28.945312-5.078125 44.0625-5.078125 15.121094 0 29.875 1.761719 44.070312 5.078125l-27.097656 47.480469 26.054688 14.871094 30.265624-53.035157c62.097657 25.378907 108.75 81.960938 119.386719 150.59375h-385.355469c10.636719-68.632812 57.289063-125.21875 119.390626-150.597656zm299.273437 210.59375h-61v30h61v31.996094h-451.972656v-31.996094h60.996093v-30h-60.996093v-29.996094h451.972656zm0 0" data-original="#000000" class="active-path" data-old_color="#4A4ABB" fill="#3333C9"/></g> </svg>
