<?xml version="1.0" encoding="iso-8859-1"?>
<!-- Generator: Adobe Illustrator 18.1.1, SVG Export Plug-In . SVG Version: 6.00 Build 0)  -->
<svg version="1.1" id="Capa_1" xmlns="http://www.w3.org/2000/svg" xmlns:xlink="http://www.w3.org/1999/xlink" x="0px" y="0px"
	 viewBox="0 0 525.153 525.153" style="enable-background:new 0 0 525.153 525.153;" xml:space="preserve">
<g>
	<path d="M437.649,145.817H116.693C52.253,145.817,0,198.07,0,262.576s52.253,116.759,116.693,116.759h291.766v-29.19H116.693
		c-48.445,0-87.504-39.19-87.504-87.569s39.058-87.569,87.504-87.569h320.956c32.078,0,58.314,26.367,58.314,58.379
		c0,32.144-26.236,58.379-58.314,58.379H175.073c-16.061,0-29.19-13.194-29.19-29.19s13.129-29.19,29.19-29.19h233.387v-29.19
		H175.073c-32.144,0-58.379,26.236-58.379,58.379s26.236,58.379,58.379,58.379h262.576c48.445,0,87.504-39.058,87.504-87.569
		C525.153,185.007,486.094,145.817,437.649,145.817z"/>
</g>
<g>
</g>
<g>
</g>
<g>
</g>
<g>
</g>
<g>
</g>
<g>
</g>
<g>
</g>
<g>
</g>
<g>
</g>
<g>
</g>
<g>
</g>
<g>
</g>
<g>
</g>
<g>
</g>
<g>
</g>
</svg>
