<?xml version="1.0"?>
<svg xmlns="http://www.w3.org/2000/svg" xmlns:xlink="http://www.w3.org/1999/xlink" version="1.1" id="Capa_1" x="0px" y="0px" viewBox="0 0 512 512" style="enable-background:new 0 0 512 512;" xml:space="preserve" width="512px" height="512px"><g><g>
	<g>
		<path d="M449,0H149c-34.738,0-63,28.262-63,63v323H20c-11.046,0-20,8.954-20,20v43c0,34.738,28.262,63,63,63h300    c34.738,0,63-28.262,63-63V126h66c11.046,0,20-8.954,20-20V63C512,28.262,483.738,0,449,0z M63,472c-12.682,0-23-10.317-23-23v-23    c6.283,0,255.769,0,260,0v23c0,8.089,1.624,16.086,4.347,23H63z M386,63c0,33.018,0,367.344,0,386c0,12.683-10.317,23-23,23    c-12.683,0-23-10.317-23-23v-43c0-11.046-8.954-20-20-20H126V63c0-12.683,10.318-23,23-23h241.347C387.62,46.92,386,54.928,386,63    z M472,86h-46V63c0-12.683,10.317-23,23-23c12.683,0,23,10.317,23,23V86z" data-original="#000000" class="active-path" data-old_color="#000000" fill="#FFFFFF"/>
	</g>
</g></g> </svg>
