<?xml version="1.0"?>
<svg xmlns="http://www.w3.org/2000/svg" xmlns:xlink="http://www.w3.org/1999/xlink" version="1.1" id="Capa_1" x="0px" y="0px" viewBox="0 0 296.333 296.333" style="enable-background:new 0 0 296.333 296.333;" xml:space="preserve" width="512px" height="512px" class=""><g><path d="M296.167,146.833l-48-27.338V98.819v-0.34c0-0.323,0.142-0.477,0.103-0.795c-0.639-8.678-7.419-15.352-16.269-15.352  c0,0-0.001,0-0.002,0c-8.849,0-15.963,6.674-16.602,15.352c-0.039,0.318-0.23,0.472-0.23,0.795v0.34v1.946l-34-19.297V32.333  c0-18.226-18.667-32.333-33-32.333c-14.333,0-33,14.107-33,32.333v49.136l-33,18.729v-1.379v-0.34c0-0.323,0.142-0.477,0.103-0.795  c-0.638-8.678-7.419-15.352-16.269-15.352c0,0-0.001,0-0.002,0c-8.849,0-15.963,6.674-16.602,15.352  c-0.039,0.318-0.23,0.472-0.23,0.795v0.34v20.108l-49,27.905v50.5l49-7.195v6.373v0.34c0,0.323,0.191,0.645,0.23,0.963  c0.638,8.678,7.669,15.519,16.519,15.519c0.001,0,0.043,0,0.043,0h0.022c8.849,0,15.641-6.842,16.279-15.519  c0.039-0.318-0.093-0.64-0.093-0.963v-0.34v-11.202l33-4.829v66.101l-33,32.753v17l66-17l66,17v-17l-33-32.753V180.48l34,4.976  v11.056v0.34c0,0.323,0.191,0.645,0.23,0.963c0.639,8.678,7.669,15.519,16.519,15.519c0.001,0,0.043,0,0.043,0h0.022  c8.849,0,15.641-6.842,16.279-15.519c0.039-0.318-0.093-0.64-0.093-0.963v-0.34v-6.227l48,7.049V146.833z" data-original="#000000" class="active-path" data-old_color="#Ffffff" fill="#Ffffff"/></g> </svg>
